<svg width="448" height="448" xmlns="http://www.w3.org/2000/svg">

 <g>
  <title>Layer 1</title>
  <g>
   <g>
    <path d="m347,190.62238c-17.629,0.875 -53.09,5.5547 -75.801,28.27c-22.625,22.625 -27.371,60.121 -28.293,78.914c18.008,-2.0625 53.223,-8.8477 75.801,-31.406c22.625,-22.625 27.371,-58.148 28.293,-75.777l0,-0.001z"/>
    <path d="m224,0.00238c-123.51,0 -224,100.49 -224,224c0,121 96.5,219.68 216.54,223.64l0,-44.441c0,-10.641 1.5898,-27.641 4.8164,-45.113c-0.20312,0.04297 -0.35938,0.13281 -0.53906,0.13281c0,0 -1.8359,0.13281 -5.0391,0.13281c-15.793,0 -69.82,-2.5312 -102.32,-35.078c-38.102,-38.059 -35.078,-100.89 -34.945,-103.55c0.3125,-5.6914 4.8828,-10.238 10.574,-10.551c0,0 1.7461,-0.13281 4.8164,-0.13281c14.941,0 66.238,2.5312 98.738,35.035c13.688,13.688 22.512,30.621 28.246,46.77c1.7695,-23.273 8.7148,-62.047 34.496,-87.809c32.504,-32.504 83.777,-35.035 98.719,-35.035c3.1133,0 4.8594,0.13281 4.8594,0.13281c5.6914,0.3125 10.258,4.8594 10.551,10.551c0.15625,2.6641 3.1602,65.496 -34.945,103.55c-22.758,22.805 -54.387,32.168 -76.586,36.043c-10.168,13.777 -19.039,58.062 -19.02,84.918l0,44.062c116.55,-7.75 209.06,-104.79 209.06,-223.26c-0.01563,-123.51 -100.5,-224 -224.02,-224l-0.00204,0.00238z"/>
    <path d="m101,231.66238c0.89453,17.629 5.6211,53.156 28.27,75.777c22.691,22.715 60.145,27.441 78.895,28.312c-2.0156,-17.988 -8.8047,-53.199 -31.383,-75.824c-22.691,-22.711 -58.129,-27.391 -75.781,-28.266l-0.001,0.001z"/>
   </g>
  </g>
 </g>
</svg>